<svg width="22" height="22" viewBox="0 0 22 22" fill="none" xmlns="http://www.w3.org/2000/svg">
<path d="M1.39999 11.6C1.39999 10.6059 2.20588 9.80002 3.19999 9.80002C4.19411 9.80002 4.99999 10.6059 4.99999 11.6V18.8C4.99999 19.7941 4.19411 20.6 3.19999 20.6C2.20588 20.6 1.39999 19.7941 1.39999 18.8V11.6Z" stroke="white" stroke-width="2"/>
<path d="M6.19999 11.4V17.9167C6.19999 18.8258 6.7136 19.6568 7.52668 20.0634L7.5865 20.0933C8.253 20.4265 8.98794 20.6 9.73312 20.6H16.2325C17.3765 20.6 18.3615 19.7925 18.5859 18.6707L20.0259 11.4707C20.3229 9.98561 19.187 8.60002 17.6725 8.60002H13.4V3.80002C13.4 2.47454 12.3255 1.40002 11 1.40002C10.3373 1.40002 9.79999 1.93728 9.79999 2.60002V3.40002C9.79999 4.4386 9.46314 5.44916 8.83999 6.28002L7.15999 8.52002C6.53685 9.35089 6.19999 10.3614 6.19999 11.4Z" stroke="white" stroke-width="2"/>
</svg>
